<?xml version="1.0" encoding="iso-8859-1"?><!-- Generator: Adobe Illustrator 21.0.2, SVG Export Plug-In . SVG Version: 6.00 Build 0)  --><svg xmlns="http://www.w3.org/2000/svg" xmlns:xlink="http://www.w3.org/1999/xlink" viewBox="0 0 80 80" width="80px" height="80px" style="fill: white;"><circle cx="40" cy="13" r="1"/><circle cx="40" cy="67" r="1"/><circle cx="67" cy="40" r="1"/><circle cx="13" cy="40" r="1"/><ellipse transform="matrix(0.7071 -0.7071 0.7071 0.7071 2.5233 47.9081)" cx="59.092" cy="20.908" rx="1" ry="1"/><ellipse transform="matrix(0.7071 -0.7071 0.7071 0.7071 -35.6604 32.0919)" cx="20.908" cy="59.092" rx="1" ry="1"/><ellipse transform="matrix(0.7071 -0.7071 0.7071 0.7071 -24.4767 59.0919)" cx="59.092" cy="59.092" rx="1" ry="1"/><ellipse transform="matrix(0.9239 -0.3827 0.3827 0.9239 -21.0219 24.205)" cx="50.332" cy="64.945" rx="1" ry="1"/><ellipse transform="matrix(0.9239 -0.3827 0.3827 0.9239 -6.4097 27.1116)" cx="64.945" cy="29.668" rx="1" ry="1"/><ellipse transform="matrix(0.9239 -0.3827 0.3827 0.9239 -18.1154 9.5927)" cx="15.055" cy="50.332" rx="1" ry="1"/><ellipse transform="matrix(0.3827 -0.9239 0.9239 0.3827 17.1618 55.795)" cx="50.332" cy="15.055" rx="1" ry="1"/><ellipse transform="matrix(0.3827 -0.9239 0.9239 0.3827 -41.6869 67.5007)" cx="29.668" cy="64.945" rx="1" ry="1"/><ellipse transform="matrix(0.3827 -0.9239 0.9239 0.3827 -6.4097 91.0722)" cx="64.945" cy="50.332" rx="1" ry="1"/><ellipse transform="matrix(0.3827 -0.9239 0.9239 0.3827 -18.1154 32.2235)" cx="15.055" cy="29.668" rx="1" ry="1"/><ellipse transform="matrix(0.9808 -0.1951 0.1951 0.9808 -12.1 10.1087)" cx="45.267" cy="66.481" rx="1" ry="1"/><ellipse transform="matrix(0.9808 -0.1951 0.1951 0.9808 -5.4986 13.6372)" cx="66.481" cy="34.733" rx="1" ry="1"/><ellipse transform="matrix(0.9808 -0.1951 0.1951 0.9808 -8.5715 3.5072)" cx="13.519" cy="45.267" rx="1" ry="1"/><ellipse transform="matrix(0.5556 -0.8315 0.8315 0.5556 9.8513 53.531)" cx="55" cy="17.55" rx="1" ry="1"/><ellipse transform="matrix(0.5556 -0.8315 0.8315 0.5556 -40.8144 48.5409)" cx="25" cy="62.45" rx="1" ry="1"/><ellipse transform="matrix(0.5556 -0.8315 0.8315 0.5556 -17.9767 76.3688)" cx="62.45" cy="55" rx="1" ry="1"/><ellipse transform="matrix(0.8315 -0.5556 0.5556 0.8315 -25.4259 41.0813)" cx="55" cy="62.45" rx="1" ry="1"/><ellipse transform="matrix(0.8315 -0.5556 0.5556 0.8315 -3.3644 38.9084)" cx="62.45" cy="25" rx="1" ry="1"/><ellipse transform="matrix(0.8315 -0.5556 0.5556 0.8315 -27.5988 19.0197)" cx="17.55" cy="55" rx="1" ry="1"/><ellipse transform="matrix(0.1951 -0.9808 0.9808 0.1951 23.1772 55.279)" cx="45.267" cy="13.519" rx="1" ry="1"/><ellipse transform="matrix(0.1951 -0.9808 0.9808 0.1951 -37.2472 87.5765)" cx="34.733" cy="66.481" rx="1" ry="1"/><ellipse transform="matrix(0.1951 -0.9808 0.9808 0.1951 9.1137 101.64)" cx="66.481" cy="45.267" rx="1" ry="1"/><ellipse transform="matrix(0.1951 -0.9808 0.9808 0.1951 -23.1838 41.2156)" cx="13.519" cy="34.733" rx="1" ry="1"/><polygon points="19,27 8,16 22,13 "/><path d="M68.579,23.5C62.306,12.634,50.742,6.687,39,7.024v2.013c0.316-0.01,0.632-0.03,0.947-0.03c10.722,0,21.164,5.561,26.899,15.494c4.141,7.171,5.24,15.525,3.098,23.523c-2.144,7.999-7.273,14.683-14.444,18.823C40.694,75.393,21.699,70.302,13.153,55.5c-4.141-7.171-5.24-15.525-3.098-23.523c1.554-5.798,4.681-10.902,9.014-14.85c0.619-0.564-0.236-2.484-1.231-1.586c-4.676,4.217-8.046,9.692-9.715,15.918c-2.281,8.514-1.11,17.407,3.297,25.041c6.105,10.575,17.221,16.493,28.635,16.493c5.595,0,11.261-1.422,16.444-4.414c7.634-4.407,13.095-11.523,15.376-20.038C74.157,40.027,72.986,31.134,68.579,23.5z"/></svg>